<?xml version="1.0" encoding="utf-8"?>
<!-- Generator: Adobe Illustrator 19.0.0, SVG Export Plug-In . SVG Version: 6.00 Build 0)  -->
<svg version="1.1" id="Capa_1" xmlns="http://www.w3.org/2000/svg" xmlns:xlink="http://www.w3.org/1999/xlink" x="0px" y="0px"
	 viewBox="5 90 606.2 662.7" style="enable-background:new 5 90 606.2 662.7;" xml:space="preserve">
<style type="text/css">
	.st0{fill:#010202;}
	.st1{fill:#F7B053;}
</style>
<g id="XMLID_210_">
	<path id="XMLID_215_" class="st0" d="M235.1,467.2c1.1,0.7,2.3,1,3.5,1c1.1,0,2.2-0.3,3.1-0.8L398,385.5c2.2-1.2,3.6-3.5,3.6-6
		s-1.4-4.8-3.6-6l-156.3-81.9c-2.1-1.1-4.6-1-6.7,0.2c-2,1.2-3.3,3.4-3.3,5.8v163.8C231.8,463.7,233.1,465.9,235.1,467.2z"/>
	<path id="XMLID_212_" class="st0" d="M5,191.8v375.3h606.2V191.8H5z M596.1,552h-576V206.9h576V552z"/>
	<path id="XMLID_211_" class="st1" d="M603.6,614.7H88.7c-3.3-12.2-14.4-21.1-27.7-21.1c-13.2,0-24.3,9-27.7,21.1H12.5
		c-4.2,0-7.5,3.4-7.5,7.5c0,4.2,3.4,7.5,7.5,7.5h20.9c3.3,12.2,14.4,21.1,27.7,21.1c13.2,0,24.3-9,27.7-21.1h514.9
		c4.2,0,7.5-3.4,7.5-7.5C611.2,618.1,607.8,614.7,603.6,614.7z"/>
</g>
</svg>
