<?xml version="1.0" encoding="utf-8"?>
<!-- Generator: Adobe Illustrator 19.0.0, SVG Export Plug-In . SVG Version: 6.00 Build 0)  -->
<svg version="1.1" id="Capa_1" xmlns="http://www.w3.org/2000/svg" xmlns:xlink="http://www.w3.org/1999/xlink" x="0px" y="0px"
	 viewBox="0 0 381.8 549.6" style="enable-background:new 0 0 381.8 549.6;" xml:space="preserve">
<style type="text/css">
	.st0{fill:#F7B053;}
	.st1{fill:#010202;}
</style>
<path class="st0" d="M289.2,439.1H91.1c-6.2,0-11.5-4.5-12.4-10.6l-12.7-81.3c-0.1-0.6-0.1-1.3-0.1-1.9c0-16.8-10.8-29.3-10.9-29.4
	C19.7,281.4,0,234.6,0,184.5C0,82.8,82.8,0,184.5,0c2.3,0,4.5,0.6,6.4,1.7c1.9-1.1,4-1.7,6.4-1.7C299,0,381.8,82.8,381.8,184.5
	c0,50-19.7,96.9-55.5,131.9c-0.5,0.5-1,0.9-1.6,1.3c-0.2,0.2-10.2,8-10.2,27.5c0,0.7-0.1,1.3-0.2,1.9l-12.7,81.3
	C300.7,434.6,295.4,439.1,289.2,439.1z M101.9,414h176.6l10.9-69.8c0.3-24.7,12.2-40.4,20-46.4c30.5-30.2,47.3-70.4,47.3-113.3
	c0-87.9-71.5-159.4-159.4-159.4c-2.3,0-4.5-0.6-6.4-1.7c-1.9,1.1-4,1.7-6.4,1.7c-87.9,0-159.4,71.5-159.4,159.4
	c0,43.2,17,83.7,47.9,113.9c1.2,1.3,17.5,19.6,17.9,45.8L101.9,414z"/>
<path class="st1" d="M258,498.1H126.8c-6.9,0-12.6-5.6-12.6-12.6c0-6.9,5.6-12.6,12.6-12.6H258c6.9,0,12.6,5.6,12.6,12.6
	C270.6,492.5,265,498.1,258,498.1z"/>
<path class="st1" d="M220,549.6h-59.8c-7,0-12.6-5.6-12.6-12.6c0-6.9,5.6-12.6,12.6-12.6H220c7,0,12.6,5.6,12.6,12.6
	C232.6,543.9,227,549.6,220,549.6z"/>
<path class="st0" d="M185.2,284.6c-1.5,0-3-0.3-4.4-0.8c-6.5-2.4-9.8-9.7-7.4-16.2l23.2-61.9h-41c-4.1,0-8-2-10.3-5.4
	c-2.4-3.4-2.9-7.7-1.4-11.6l29.6-78.9c2.4-6.5,9.7-9.8,16.2-7.4c6.5,2.4,9.8,9.7,7.4,16.2l-23.2,61.9h41c4.1,0,8,2,10.3,5.4
	c2.4,3.4,2.9,7.7,1.4,11.6L197,276.4C195.1,281.4,190.3,284.6,185.2,284.6z"/>
</svg>
