<?xml version="1.0" encoding="utf-8"?>
<!-- Generator: Adobe Illustrator 19.0.0, SVG Export Plug-In . SVG Version: 6.00 Build 0)  -->
<svg version="1.1" id="Capa_1" xmlns="http://www.w3.org/2000/svg" xmlns:xlink="http://www.w3.org/1999/xlink" x="0px" y="0px"
	 viewBox="0 0 442.4 459.1" style="enable-background:new 0 0 442.4 459.1;" xml:space="preserve">
<style type="text/css">
	.st0{fill:#010202;}
</style>
<g id="XMLID_211_">
	<path id="XMLID_212_" class="st0" d="M435.4,69.4c3.9,0,7-3.1,7-7c0-3.9-3.1-7-7-7h-25.3V14h25.3c3.9,0,7-3.1,7-7s-3.1-7-7-7H7
		C3.1,0,0,3.1,0,7s3.1,7,7,7h389.1v41.4H7c-3.9,0-7,3.1-7,7c0,3.8,3.1,7,7,7h389.1v41.4H7c-3.9,0-7,3.1-7,7c0,3.9,3.1,7,7,7h389.1
		v41.4H7c-3.9,0-7,3.1-7,7c0,3.9,3.1,7,7,7h389.1v41.4H7c-3.9,0-7,3.1-7,7c0,3.8,3.1,7,7,7h389.1V277H7c-3.9,0-7,3.1-7,7
		c0,3.9,3.1,7,7,7h389.1v100.5c-12,3.1-20.9,14.1-20.9,27.1v33.6c0,3.9,3.1,7,7,7H424c3.9,0,7-3.1,7-7v-33.6
		c0-13-8.9-23.9-20.9-27.1V291h25.3c3.9,0,7-3.1,7-7c0-3.9-3.1-7-7-7h-25.3v-41.4h25.3c3.9,0,7-3.1,7-7c0-3.9-3.1-7-7-7h-25.3v-41.4
		h25.3c3.9,0,7-3.1,7-7c0-3.9-3.1-7-7-7h-25.3v-41.4h25.3c3.9,0,7-3.1,7-7c0-3.9-3.1-7-7-7h-25.3V69.4H435.4z M417,418.6v26.6h-27.9
		v-26.6c0-7.7,6.2-13.9,13.9-13.9C410.7,404.6,417,410.9,417,418.6z"/>
</g>
</svg>
