<?xml version="1.0" encoding="utf-8"?>
<!-- Generator: Adobe Illustrator 19.0.0, SVG Export Plug-In . SVG Version: 6.00 Build 0)  -->
<svg version="1.1" id="Capa_1" xmlns="http://www.w3.org/2000/svg" xmlns:xlink="http://www.w3.org/1999/xlink" x="0px" y="0px"
	 viewBox="5 93.7 606.2 655.3" style="enable-background:new 5 93.7 606.2 655.3;" xml:space="preserve">
<style type="text/css">
	.st0{fill:none;stroke:#010202;stroke-width:24;stroke-miterlimit:10;}
	.st1{fill:none;stroke:#F7B053;stroke-width:24;stroke-miterlimit:10;}
</style>
<g id="XMLID_211_">
	<path id="XMLID_270_" class="st0" d="M547.8,429.8H68.1c-27.8,0-50.5-22.7-50.5-50.5v-125c-0.1-27.8,22.7-50.5,50.5-50.5h479.8
		c27.8,0,50.5,22.7,50.5,50.5v125C598.3,407.1,575.6,429.8,547.8,429.8z"/>
	<line id="XMLID_269_" class="st0" x1="23.9" y1="331.3" x2="598.3" y2="331.3"/>
	<line id="XMLID_268_" class="st0" x1="410.2" y1="376.8" x2="449.3" y2="376.8"/>
	<line id="XMLID_267_" class="st0" x1="473.3" y1="376.8" x2="512.5" y2="376.8"/>
	<path id="XMLID_215_" class="st1" d="M128.7,511.9c0,0,36.6,18.9,6.3,51.8c-30.3,32.8,2.5,74.5,2.5,74.5"/>
	<path id="XMLID_214_" class="st1" d="M243.5,511.9c0,0,36.6,18.9,6.3,51.8c-30.3,32.8,2.5,74.5,2.5,74.5"/>
	<path id="XMLID_213_" class="st1" d="M359.7,511.9c0,0,36.6,18.9,6.3,51.8c-30.3,32.8,2.5,74.5,2.5,74.5"/>
	<path id="XMLID_212_" class="st1" d="M474.6,511.9c0,0,36.6,18.9,6.3,51.8c-30.3,32.8,2.5,74.5,2.5,74.5"/>
</g>
</svg>
